HIERARCHY
ROOT Model
{
	OFFSET 0 0 0
	CHANNELS 6 Xposition Yposition Zposition Zrotation Xrotation Yrotation
	JOINT Model1
	{
		OFFSET 0 -2.25479 2.99384
		CHANNELS 3 Zrotation Xrotation Yrotation
		JOINT Model2
		{
			OFFSET 12.111 0 0
			CHANNELS 3 Zrotation Xrotation Yrotation
			JOINT Model3
			{
				OFFSET 11.5502 0 0
				CHANNELS 3 Zrotation Xrotation Yrotation
				JOINT Model4
				{
					OFFSET 11.781 0 0
					CHANNELS 3 Zrotation Xrotation Yrotation
					JOINT Model5
					{
						OFFSET 20.0601 0 0
						CHANNELS 3 Zrotation Xrotation Yrotation
						JOINT Model6
						{
							OFFSET 11.1962 0 0
							CHANNELS 3 Zrotation Xrotation Yrotation
							End Site
							{
								OFFSET 0 0 0
							}
						}
					}
					JOINT Model7
					{
						OFFSET 10.8223 0.417534 3.51114
						CHANNELS 3 Zrotation Xrotation Yrotation
						JOINT Model8
						{
							OFFSET -6.07944 0 0
							CHANNELS 3 Zrotation Xrotation Yrotation
							JOINT Model9
							{
								OFFSET -0.277405 10.39 -0.051239
								CHANNELS 3 Zrotation Xrotation Yrotation
								JOINT Model10
								{
									OFFSET -3.43909 -0.282043 1.86679
									CHANNELS 3 Zrotation Xrotation Yrotation
									JOINT Model11
									{
										OFFSET 13.0269 0 0
										CHANNELS 3 Zrotation Xrotation Yrotation
										JOINT Model12
										{
											OFFSET 10.8866 0 0
											CHANNELS 3 Zrotation Xrotation Yrotation
											JOINT Model13
											{
												OFFSET 16.7317 0 0
												CHANNELS 3 Zrotation Xrotation Yrotation
												JOINT Model14
												{
													OFFSET 11.8292 0 0
													CHANNELS 3 Zrotation Xrotation Yrotation
													JOINT Model15
													{
														OFFSET 4.82751 -3.73566 -0.836517
														CHANNELS 3 Zrotation Xrotation Yrotation
														JOINT Model16
														{
															OFFSET 3.75311 -0.0582886 -0.0186462
															CHANNELS 3 Zrotation Xrotation Yrotation
															JOINT Model17
															{
																OFFSET 2.88689 0.0192337 0.014801
																CHANNELS 3 Zrotation Xrotation Yrotation
																End Site
																{
																	OFFSET 0 0 0
																}
															}
														}
													}
													JOINT Model18
													{
														OFFSET 9.72197 -3.06458 0.23877
														CHANNELS 3 Zrotation Xrotation Yrotation
														JOINT Model19
														{
															OFFSET 4.61131 0 0
															CHANNELS 3 Zrotation Xrotation Yrotation
															JOINT Model20
															{
																OFFSET 2.8969 -7.62939e-006 0
																CHANNELS 3 Zrotation Xrotation Yrotation
																End Site
																{
																	OFFSET 0 0 0
																}
															}
														}
													}
													JOINT Model21
													{
														OFFSET 9.54431 -0.745064 0.588928
														CHANNELS 3 Zrotation Xrotation Yrotation
														JOINT Model22
														{
															OFFSET 5.33978 0 0
															CHANNELS 3 Zrotation Xrotation Yrotation
															JOINT Model23
															{
																OFFSET 3.03619 7.62939e-006 0
																CHANNELS 3 Zrotation Xrotation Yrotation
																End Site
																{
																	OFFSET 0 0 0
																}
															}
														}
													}
													JOINT Model24
													{
														OFFSET 9.47758 1.51286 0.485107
														CHANNELS 3 Zrotation Xrotation Yrotation
														JOINT Model25
														{
															OFFSET 4.96136 7.62939e-006 0
															CHANNELS 3 Zrotation Xrotation Yrotation
															JOINT Model26
															{
																OFFSET 2.51965 0 0
																CHANNELS 3 Zrotation Xrotation Yrotation
																End Site
																{
																	OFFSET 0 0 0
																}
															}
														}
													}
													JOINT Model27
													{
														OFFSET 9.34247 3.34117 -0.239288
														CHANNELS 3 Zrotation Xrotation Yrotation
														JOINT Model28
														{
															OFFSET 3.28259 2.28882e-005 0
															CHANNELS 3 Zrotation Xrotation Yrotation
															JOINT Model29
															{
																OFFSET 2.1292 0 0
																CHANNELS 3 Zrotation Xrotation Yrotation
																End Site
																{
																	OFFSET 0 0 0
																}
															}
														}
													}
												}
											}
										}
									}
								}
							}
						}
					}
					JOINT Model30
					{
						OFFSET 10.8223 0.4179 -3.51108
						CHANNELS 3 Zrotation Xrotation Yrotation
						JOINT Model31
						{
							OFFSET 6.07944 0 0
							CHANNELS 3 Zrotation Xrotation Yrotation
							JOINT Model32
							{
								OFFSET 0.277405 -10.39 0.051239
								CHANNELS 3 Zrotation Xrotation Yrotation
								JOINT Model33
								{
									OFFSET 3.43909 0.282043 -1.86679
									CHANNELS 3 Zrotation Xrotation Yrotation
									JOINT Model34
									{
										OFFSET -13.0269 0 0
										CHANNELS 3 Zrotation Xrotation Yrotation
										JOINT Model35
										{
											OFFSET -10.8866 0 0
											CHANNELS 3 Zrotation Xrotation Yrotation
											JOINT Model36
											{
												OFFSET -16.7317 0 0
												CHANNELS 3 Zrotation Xrotation Yrotation
												JOINT Model37
												{
													OFFSET -11.8292 0 0
													CHANNELS 3 Zrotation Xrotation Yrotation
													JOINT Model38
													{
														OFFSET -4.82751 3.73566 0.836517
														CHANNELS 3 Zrotation Xrotation Yrotation
														JOINT Model39
														{
															OFFSET -3.75311 0.0582886 0.0186462
															CHANNELS 3 Zrotation Xrotation Yrotation
															JOINT Model40
															{
																OFFSET -2.88687 -0.0192337 -0.014801
																CHANNELS 3 Zrotation Xrotation Yrotation
																End Site
																{
																	OFFSET 0 0 0
																}
															}
														}
													}
													JOINT Model41
													{
														OFFSET -9.72198 3.06459 -0.23877
														CHANNELS 3 Zrotation Xrotation Yrotation
														JOINT Model42
														{
															OFFSET -4.6113 0 0
															CHANNELS 3 Zrotation Xrotation Yrotation
															JOINT Model43
															{
																OFFSET -2.89691 0 0
																CHANNELS 3 Zrotation Xrotation Yrotation
																End Site
																{
																	OFFSET 0 0 0
																}
															}
														}
													}
													JOINT Model44
													{
														OFFSET -9.54431 0.745064 -0.588928
														CHANNELS 3 Zrotation Xrotation Yrotation
														JOINT Model45
														{
															OFFSET -5.33978 0 0
															CHANNELS 3 Zrotation Xrotation Yrotation
															JOINT Model46
															{
																OFFSET -3.03619 -1.52588e-005 0
																CHANNELS 3 Zrotation Xrotation Yrotation
																End Site
																{
																	OFFSET 0 0 0
																}
															}
														}
													}
													JOINT Model47
													{
														OFFSET -9.4776 -1.51286 -0.485107
														CHANNELS 3 Zrotation Xrotation Yrotation
														JOINT Model48
														{
															OFFSET -4.96136 -1.52588e-005 0
															CHANNELS 3 Zrotation Xrotation Yrotation
															JOINT Model49
															{
																OFFSET -2.51965 0 0
																CHANNELS 3 Zrotation Xrotation Yrotation
																End Site
																{
																	OFFSET 0 0 0
																}
															}
														}
													}
													JOINT Model50
													{
														OFFSET -9.34247 -3.34118 0.239288
														CHANNELS 3 Zrotation Xrotation Yrotation
														JOINT Model51
														{
															OFFSET -3.28259 -2.28882e-005 0
															CHANNELS 3 Zrotation Xrotation Yrotation
															JOINT Model52
															{
																OFFSET -2.12921 0 0
																CHANNELS 3 Zrotation Xrotation Yrotation
																End Site
																{
																	OFFSET 0 0 0
																}
															}
														}
													}
												}
											}
										}
									}
								}
							}
						}
					}
				}
			}
		}
	}
	JOINT Model53
	{
		OFFSET 4.38025 -2.14632 -1.11517
		CHANNELS 3 Zrotation Xrotation Yrotation
		JOINT Model54
		{
			OFFSET 0 0 4.94998
			CHANNELS 3 Zrotation Xrotation Yrotation
			JOINT Model55
			{
				OFFSET 18.5642 0 0
				CHANNELS 3 Zrotation Xrotation Yrotation
				JOINT Model56
				{
					OFFSET 21.2884 0 0
					CHANNELS 3 Zrotation Xrotation Yrotation
					JOINT Model57
					{
						OFFSET 30.261 0 0
						CHANNELS 3 Zrotation Xrotation Yrotation
						JOINT Model58
						{
							OFFSET 11.7259 0 0
							CHANNELS 3 Zrotation Xrotation Yrotation
							JOINT Model59
							{
								OFFSET 10.682 0 0
								CHANNELS 3 Zrotation Xrotation Yrotation
								End Site
								{
									OFFSET 0 0 0
								}
							}
						}
					}
				}
			}
		}
	}
	JOINT Model60
	{
		OFFSET -4.38025 -2.14632 -1.11517
		CHANNELS 3 Zrotation Xrotation Yrotation
		JOINT Model61
		{
			OFFSET 0 0 -4.94998
			CHANNELS 3 Zrotation Xrotation Yrotation
			JOINT Model62
			{
				OFFSET -18.5642 0 0
				CHANNELS 3 Zrotation Xrotation Yrotation
				JOINT Model63
				{
					OFFSET -21.2884 0 0
					CHANNELS 3 Zrotation Xrotation Yrotation
					JOINT Model64
					{
						OFFSET -30.261 0 0
						CHANNELS 3 Zrotation Xrotation Yrotation
						JOINT Model65
						{
							OFFSET -11.7259 0 0
							CHANNELS 3 Zrotation Xrotation Yrotation
							JOINT Model66
							{
								OFFSET -10.682 0 0
								CHANNELS 3 Zrotation Xrotation Yrotation
								End Site
								{
									OFFSET 0 0 0
								}
							}
						}
					}
				}
			}
		}
	}
}
MOTION
Frames: 5
Frame Time: 0.033333
-350.833 152.689 -350.05 67.8647 -40.7723 77.2291 -180 4.29621e-031 -90 1.84123 -2.2302 0.457086 3.70441 -4.44491 0.986825 3.70441 -4.44448 0.986796 -5.21137 -15.991 25.8298 2.29475 -8.28238 -10.9674 120.092 75.5343 58.4939 0.847127 35.3702 10.6261 -167.277 84.4999 48.8109 122.041 0.939877 12.1851 -2.05839e-006 23.1325 3.22587e-005 -62.2006 12.8737 0.552026 3.14236e-007 18.6442 3.68323e-007 -3.1291 0.60425 -21.8541 -72.0648 39.0385 39.3397 33.3638 2.10362 14.835 0.588947 0.308273 6.35287 -99.6409 81.413 100.35 -0.0181409 2.77903e-005 -0.117315 -0.124139 0.00241114 -0.799296 -79.8382 79.5773 80.5374 -0.000225786 -0.000220911 2.2206e-005 -0.000956239 0.00012291 -2.7305e-005 -66.7416 80.4058 67.2171 -0.000437142 1.59569e-005 -2.73089e-005 -0.000136616 -0.000109276 -5.46255e-005 -6.42159 81.2158 8.01779 -0.000218575 1.69148e-005 0.000212152 0.000901572 -0.000184793 -0.00021855 -59.9282 75.5373 58.5147 -13.7794 10.7759 7.49623 -167.277 84.4999 48.8109 136.914 -12.5766 -12.7057 7.63537e-006 -1.30967 2.90701e-005 -82.0511 -28.8156 0.688983 -3.13565e-006 -43.7516 4.12342e-006 11.8135 -2.11546 -20.2366 -72.0648 39.0385 39.3397 33.3638 2.10361 14.835 0.588946 0.308273 6.35287 -99.6409 81.413 100.35 -0.0181409 3.00763e-005 -0.117315 -0.124139 0.00241113 -0.799296 -79.8382 79.5773 80.5374 -0.000260651 -0.000218568 2.35697e-005 -0.000956233 0.000122994 -2.73216e-005 -66.7416 80.4058 67.2171 -0.000437137 1.48793e-005 -2.73212e-005 -0.000136611 -0.000109286 -5.46421e-005 -6.42159 81.2158 8.01779 -0.000218572 1.95768e-005 0.000212297 0.000901576 -0.000191248 -0.000218566 0.000811311 0.56661 89.91 -62.8502 -4.38805 -56.841 9.03903e-007 -8.31412 -1.46522e-008 80.7752 4.36082 -0.00838498 -8.71554e-008 6.42025 -1.17337e-007 -71.6364 -8.96857 3.42884 -36.2858 -2.2496 0.0901709 -180 -0.566579 -90.09 -70.5851 2.89142 -34.4489 -6.45196e-007 -0.208981 -1.95059e-008 43.8349 0.673385 -0.00584997 2.93648e-007 0.928029 -3.17542e-007 -34.6916 -12.6472 13.057 -35.4947 3.8933e-006 1.03528e-006 
-350.763 152.665 -349.907 67.8216 -41.1047 77.2133 -180 4.29621e-031 -90 1.75303 -2.25404 0.422506 3.52674 -4.49444 0.91494 3.52674 -4.49401 0.914913 -3.17964 -15.5871 26.9696 0.423971 -7.8907 -11.4287 120.092 75.5343 58.4939 -0.557311 35.3345 11.3007 -167.277 84.4999 48.8109 122.627 1.49499 11.9603 -2.51151e-006 23.8685 3.24394e-005 -61.9987 12.6726 0.550565 3.16281e-007 18.3422 3.67675e-007 -3.13263 0.615305 -22.2196 -72.0648 39.0385 39.3397 33.3638 2.10362 14.835 0.588947 0.308273 6.35287 -99.6409 81.413 100.35 -0.0181409 2.77903e-005 -0.117315 -0.124139 0.00241114 -0.799296 -79.8382 79.5773 80.5374 -0.000225786 -0.000220911 2.2206e-005 -0.000956239 0.00012291 -2.7305e-005 -66.7416 80.4058 67.2171 -0.000437142 1.59569e-005 -2.73089e-005 -0.000136616 -0.000109276 -5.46255e-005 -6.42159 81.2158 8.01779 -0.000218575 1.69148e-005 0.000212152 0.000901572 -0.000184793 -0.00021855 -59.9282 75.5373 58.5147 -15.4626 10.483 7.86425 -167.277 84.4999 48.8109 136.649 -12.442 -12.4943 7.55887e-006 -1.15892 2.90685e-005 -81.999 -27.998 0.683585 -3.25532e-006 -42.526 4.04158e-006 12.963 -2.30987 -20.1252 -72.0648 39.0385 39.3397 33.3638 2.10361 14.835 0.588946 0.308273 6.35287 -99.6409 81.413 100.35 -0.0181409 3.00763e-005 -0.117315 -0.124139 0.00241113 -0.799296 -79.8382 79.5773 80.5374 -0.000260651 -0.000218568 2.35697e-005 -0.000956233 0.000122994 -2.73216e-005 -66.7416 80.4058 67.2171 -0.000437137 1.48793e-005 -2.73212e-005 -0.000136611 -0.000109286 -5.46421e-005 -6.42159 81.2158 8.01779 -0.000218572 1.95768e-005 0.000212297 0.000901576 -0.000191248 -0.000218566 0.000811311 0.56661 89.91 -62.5729 -4.65881 -57.4286 9.0385e-007 -8.51566 -1.46598e-008 80.6002 4.58475 -0.00837927 -8.64626e-008 6.75621 -1.17416e-007 -71.7993 -9.38395 3.61412 -36.2156 -2.05057 0.0847553 -180 -0.566579 -90.09 -70.7781 2.81124 -34.3302 -6.45261e-007 -0.40237 -1.95063e-008 44.1356 0.919395 -0.00580905 2.95691e-007 1.29654 -3.17582e-007 -34.9848 -12.5467 12.8794 -35.4947 4.515e-006 1.10769e-006 
-350.719 152.688 -349.817 67.4232 -40.9028 76.9827 -180 4.29621e-031 -90 1.71891 -2.27064 0.478951 3.46083 -4.52622 1.02712 3.46083 -4.52578 1.02709 -3.5345 -15.9051 26.7273 1.11912 -8.27162 -10.9732 120.092 75.5343 58.4939 -0.665745 36.1138 11.596 -167.277 84.4999 48.8109 123.145 1.40253 11.773 -2.36958e-006 23.6388 3.23822e-005 -62.32 12.8641 0.552613 3.14331e-007 18.6302 3.68293e-007 -2.87884 0.574867 -22.5808 -72.0648 39.0385 39.3397 33.3638 2.10362 14.835 0.588947 0.308273 6.35287 -99.6409 81.413 100.35 -0.0181409 2.77903e-005 -0.117315 -0.124139 0.00241114 -0.799296 -79.8382 79.5773 80.5374 -0.000225786 -0.000220911 2.2206e-005 -0.000956239 0.00012291 -2.7305e-005 -66.7416 80.4058 67.2171 -0.000437142 1.59569e-005 -2.73089e-005 -0.000136616 -0.000109276 -5.46255e-005 -6.42159 81.2158 8.01779 -0.000218575 1.69148e-005 0.000212152 0.000901572 -0.000184793 -0.00021855 -59.9282 75.5373 58.5147 -15.2072 10.2272 7.67466 -167.277 84.4999 48.8109 136.722 -12.4676 -12.4933 7.56776e-006 -1.17644 2.90686e-005 -82.2822 -28.3076 0.68602 -3.21087e-006 -42.987 4.07176e-006 12.6009 -2.23452 -20.0345 -72.0648 39.0385 39.3397 33.3638 2.10361 14.835 0.588946 0.308273 6.35287 -99.6409 81.413 100.35 -0.0181409 3.00763e-005 -0.117315 -0.124139 0.00241113 -0.799296 -79.8382 79.5773 80.5374 -0.000260651 -0.000218568 2.35697e-005 -0.000956233 0.000122994 -2.73216e-005 -66.7416 80.4058 67.2171 -0.000437137 1.48793e-005 -2.73212e-005 -0.000136611 -0.000109286 -5.46421e-005 -6.42159 81.2158 8.01779 -0.000218572 1.95768e-005 0.000212297 0.000901576 -0.000191248 -0.000218566 0.000811311 0.56661 89.91 -62.7544 -4.69291 -57.5774 9.03797e-007 -8.7206 -1.46678e-008 80.4192 4.78759 -0.00837043 -8.58342e-008 7.06053 -1.17492e-007 -71.9798 -9.4968 3.64566 -36.0811 -1.66777 0.0728988 -180 -0.566579 -90.09 -70.9763 2.92488 -34.364 -6.45236e-007 -0.329262 -1.95061e-008 44.2849 0.83977 -0.00576789 2.95027e-007 1.17685 -3.17568e-007 -35.0967 -12.9206 13.2164 -35.4947 5.09261e-006 1.17086e-006 
-350.677 152.762 -349.683 67.2758 -40.5791 76.8182 -180 4.29621e-031 -90 1.61558 -2.36938 0.442851 3.25362 -4.72567 0.953669 3.25362 -4.72524 0.953644 -2.67981 -15.7279 27.1427 0.834068 -8.17782 -11.0102 120.092 75.5343 58.4939 -2.60092 35.6376 12.4047 -167.277 84.4999 48.8109 123.554 2.13088 11.6324 -3.01739e-006 24.6804 3.26474e-005 -61.8678 12.9502 0.550484 3.13461e-007 18.7584 3.68572e-007 -2.79122 0.568046 -23.0022 -72.0648 39.0385 39.3397 33.3638 2.10362 14.835 0.588947 0.308273 6.35287 -99.6409 81.413 100.35 -0.0181409 2.77903e-005 -0.117315 -0.124139 0.00241114 -0.799296 -79.8382 79.5773 80.5374 -0.000225786 -0.000220911 2.2206e-005 -0.000956239 0.00012291 -2.7305e-005 -66.7416 80.4058 67.2171 -0.000437142 1.59569e-005 -2.73089e-005 -0.000136616 -0.000109276 -5.46255e-005 -6.42159 81.2158 8.01779 -0.000218575 1.69148e-005 0.000212152 0.000901572 -0.000184793 -0.00021855 -59.9282 75.5373 58.5147 -16.3882 10.7479 8.26013 -167.277 84.4999 48.8109 137.554 -12.7639 -12.7875 7.69057e-006 -1.41842 2.90714e-005 -82.7024 -28.2032 0.68598 -3.22652e-006 -42.8255 4.06111e-006 13.3882 -2.34423 -19.7773 -72.0648 39.0385 39.3397 33.3638 2.10361 14.835 0.588946 0.308273 6.35287 -99.6409 81.413 100.35 -0.0181409 3.00763e-005 -0.117315 -0.124139 0.00241113 -0.799296 -79.8382 79.5773 80.5374 -0.000260651 -0.000218568 2.35697e-005 -0.000956233 0.000122994 -2.73216e-005 -66.7416 80.4058 67.2171 -0.000437137 1.48793e-005 -2.73212e-005 -0.000136611 -0.000109286 -5.46421e-005 -6.42159 81.2158 8.01779 -0.000218572 1.95768e-005 0.000212297 0.000901576 -0.000191248 -0.000218566 0.000811311 0.56661 89.91 -62.701 -4.77445 -57.2912 9.0378e-007 -8.78859 -1.46705e-008 80.0726 4.8303 -0.00835676 -8.57015e-008 7.12473 -1.17508e-007 -71.9066 -9.49686 3.65566 -36.1578 -1.88597 0.079887 -180 -0.566579 -90.09 -70.9855 3.08662 -34.4979 -6.45162e-007 -0.110657 -1.95058e-008 44.5053 0.636475 -0.00572859 2.93335e-007 0.871536 -3.17537e-007 -35.2352 -13.3704 13.6189 -35.4947 5.61144e-006 1.22319e-006 
-350.611 152.848 -349.572 66.9116 -40.6198 76.4197 -180 4.29621e-031 -90 1.70925 -2.2467 0.422829 3.43902 -4.48014 0.913644 3.43901 -4.47971 0.913618 -4.14006 -16.4548 27.3732 1.21257 -8.48264 -11.3859 120.092 75.5343 58.4939 -0.261396 36.428 11.4921 -167.277 84.4999 48.8109 122.682 1.11922 12.4547 -2.26344e-006 23.4665 3.23398e-005 -61.801 13.0286 0.550308 3.12662e-007 18.8758 3.68829e-007 -3.11305 0.61102 -22.2042 -72.0648 39.0385 39.3397 33.3638 2.10362 14.835 0.588947 0.308273 6.35287 -99.6409 81.413 100.35 -0.0181409 2.77903e-005 -0.117315 -0.124139 0.00241114 -0.799296 -79.8382 79.5773 80.5374 -0.000225786 -0.000220911 2.2206e-005 -0.000956239 0.00012291 -2.7305e-005 -66.7416 80.4058 67.2171 -0.000437142 1.59569e-005 -2.73089e-005 -0.000136616 -0.000109276 -5.46255e-005 -6.42159 81.2158 8.01779 -0.000218575 1.69148e-005 0.000212152 0.000901572 -0.000184793 -0.00021855 -59.9282 75.5373 58.5147 -15.2238 9.35655 7.29044 -167.277 84.4999 48.8109 136.635 -12.4365 -12.4379 7.55321e-006 -1.14775 2.90683e-005 -82.1346 -28.772 0.688828 -3.14225e-006 -43.6853 4.11885e-006 12.0542 -2.09304 -19.6317 -72.0648 39.0385 39.3397 33.3638 2.10361 14.835 0.588946 0.308273 6.35287 -99.6409 81.413 100.35 -0.0181409 3.00763e-005 -0.117315 -0.124139 0.00241113 -0.799296 -79.8382 79.5773 80.5374 -0.000260651 -0.000218568 2.35697e-005 -0.000956233 0.000122994 -2.73216e-005 -66.7416 80.4058 67.2171 -0.000437137 1.48793e-005 -2.73212e-005 -0.000136611 -0.000109286 -5.46421e-005 -6.42159 81.2158 8.01779 -0.000218572 1.95768e-005 0.000212297 0.000901576 -0.000191248 -0.000218566 0.000811311 0.56661 89.91 -62.599 -5.06268 -57.4715 9.03688e-007 -9.14346 -1.46848e-008 79.7552 4.9405 -0.00834114 -8.53595e-008 7.29016 -1.17551e-007 -71.9359 -9.48399 3.64528 -36.0716 -1.64059 0.0719875 -180 -0.566579 -90.09 -71.1166 3.3447 -34.2383 -6.45038e-007 0.255046 -1.9506e-008 44.5518 0.442326 -0.00569312 2.9172e-007 0.580235 -3.17517e-007 -35.3855 -13.5584 13.7605 -35.4947 6.0568e-006 1.2631e-006 
